<svg width="420" height="411" viewBox="0 0 420 411" fill="none" xmlns="http://www.w3.org/2000/svg">
<rect x="1" y="352" width="58" height="58" fill="#D9D9D9" stroke="black" stroke-width="2"/>
<path d="M18.397 390.841V387.364L33.7379 363.091H36.2607V368.477H34.5561L22.9652 386.818V387.091H43.6243V390.841H18.397ZM34.8288 398V389.784V388.165V363.091H38.8516V398H34.8288Z" fill="black"/>
<rect x="361" y="352" width="58" height="58" fill="white" stroke="black" stroke-width="2"/>
<rect x="301" y="352" width="58" height="58" fill="white" stroke="black" stroke-width="2"/>
<rect x="241" y="352" width="58" height="58" fill="white" stroke="black" stroke-width="2"/>
<rect x="181" y="352" width="58" height="58" fill="white" stroke="black" stroke-width="2"/>
<rect x="121" y="352" width="58" height="58" fill="white" stroke="black" stroke-width="2"/>
<rect x="61" y="352" width="58" height="58" fill="white" stroke="black" stroke-width="2"/>
<rect x="186" y="357" width="48" height="48" fill="black"/>
<rect x="186" y="357" width="48" height="48" stroke="black"/>
<rect x="246" y="357" width="48" height="48" fill="black"/>
<rect x="246" y="357" width="48" height="48" stroke="black"/>
<rect x="1" y="237" width="58" height="58" fill="#D9D9D9" stroke="black" stroke-width="2"/>
<path d="M18.397 275.841V272.364L33.7379 248.091H36.2607V253.477H34.5561L22.9652 271.818V272.091H43.6243V275.841H18.397ZM34.8288 283V274.784V273.165V248.091H38.8516V283H34.8288Z" fill="black"/>
<rect x="361" y="237" width="58" height="58" fill="white" stroke="black" stroke-width="2"/>
<rect x="301" y="237" width="58" height="58" fill="white" stroke="black" stroke-width="2"/>
<rect x="241" y="237" width="58" height="58" fill="white" stroke="black" stroke-width="2"/>
<rect x="181" y="237" width="58" height="58" fill="white" stroke="black" stroke-width="2"/>
<rect x="121" y="237" width="58" height="58" fill="white" stroke="black" stroke-width="2"/>
<rect x="61" y="237" width="58" height="58" fill="white" stroke="black" stroke-width="2"/>
<rect x="306" y="242" width="48" height="48" fill="black"/>
<rect x="306" y="242" width="48" height="48" stroke="black"/>
<rect x="366" y="242" width="48" height="48" fill="black"/>
<rect x="366" y="242" width="48" height="48" stroke="black"/>
<rect x="186" y="242" width="48" height="48" fill="black"/>
<rect x="186" y="242" width="48" height="48" stroke="black"/>
<rect x="246" y="242" width="48" height="48" fill="black"/>
<rect x="246" y="242" width="48" height="48" stroke="black"/>
<rect x="1" y="177" width="58" height="58" fill="#D9D9D9" stroke="black" stroke-width="2"/>
<path d="M18.397 215.841V212.364L33.7379 188.091H36.2607V193.477H34.5561L22.9652 211.818V212.091H43.6243V215.841H18.397ZM34.8288 223V214.784V213.165V188.091H38.8516V223H34.8288Z" fill="black"/>
<rect x="361" y="177" width="58" height="58" fill="white" stroke="black" stroke-width="2"/>
<rect x="301" y="177" width="58" height="58" fill="white" stroke="black" stroke-width="2"/>
<rect x="241" y="177" width="58" height="58" fill="white" stroke="black" stroke-width="2"/>
<rect x="181" y="177" width="58" height="58" fill="white" stroke="black" stroke-width="2"/>
<rect x="121" y="177" width="58" height="58" fill="white" stroke="black" stroke-width="2"/>
<rect x="61" y="177" width="58" height="58" fill="white" stroke="black" stroke-width="2"/>
<rect x="306" y="182" width="48" height="48" fill="black"/>
<rect x="306" y="182" width="48" height="48" stroke="black"/>
<rect x="126" y="182" width="48" height="48" fill="black"/>
<rect x="126" y="182" width="48" height="48" stroke="black"/>
<rect x="186" y="182" width="48" height="48" fill="black"/>
<rect x="186" y="182" width="48" height="48" stroke="black"/>
<rect x="246" y="182" width="48" height="48" fill="black"/>
<rect x="246" y="182" width="48" height="48" stroke="black"/>
<rect x="1" y="117" width="58" height="58" fill="#D9D9D9" stroke="black" stroke-width="2"/>
<path d="M18.397 155.841V152.364L33.7379 128.091H36.2607V133.477H34.5561L22.9652 151.818V152.091H43.6243V155.841H18.397ZM34.8288 163V154.784V153.165V128.091H38.8516V163H34.8288Z" fill="black"/>
<rect x="361" y="117" width="58" height="58" fill="white" stroke="black" stroke-width="2"/>
<rect x="301" y="117" width="58" height="58" fill="white" stroke="black" stroke-width="2"/>
<rect x="241" y="117" width="58" height="58" fill="white" stroke="black" stroke-width="2"/>
<rect x="181" y="117" width="58" height="58" fill="white" stroke="black" stroke-width="2"/>
<rect x="121" y="117" width="58" height="58" fill="white" stroke="black" stroke-width="2"/>
<rect x="61" y="117" width="58" height="58" fill="white" stroke="black" stroke-width="2"/>
<rect x="66" y="122" width="48" height="48" fill="black"/>
<rect x="66" y="122" width="48" height="48" stroke="black"/>
<rect x="126" y="122" width="48" height="48" fill="black"/>
<rect x="126" y="122" width="48" height="48" stroke="black"/>
<rect x="186" y="122" width="48" height="48" fill="black"/>
<rect x="186" y="122" width="48" height="48" stroke="black"/>
<rect x="246" y="122" width="48" height="48" fill="black"/>
<rect x="246" y="122" width="48" height="48" stroke="black"/>
<rect x="1" y="1" width="58" height="58" fill="#D9D9D9" stroke="black" stroke-width="2"/>
<path d="M18.397 39.8409V36.3636L33.7379 12.0909H36.2607V17.4773H34.5561L22.9652 35.8182V36.0909H43.6243V39.8409H18.397ZM34.8288 47V38.7841V37.1648V12.0909H38.8516V47H34.8288Z" fill="black"/>
<rect x="361" y="1" width="58" height="58" fill="white" stroke="black" stroke-width="2"/>
<rect x="301" y="1" width="58" height="58" fill="white" stroke="black" stroke-width="2"/>
<rect x="241" y="1" width="58" height="58" fill="white" stroke="black" stroke-width="2"/>
<rect x="181" y="1" width="58" height="58" fill="white" stroke="black" stroke-width="2"/>
<rect x="121" y="1" width="58" height="58" fill="white" stroke="black" stroke-width="2"/>
<rect x="61" y="1" width="58" height="58" fill="white" stroke="black" stroke-width="2"/>
<path d="M209.293 108.707C209.683 109.098 210.317 109.098 210.707 108.707L217.071 102.343C217.462 101.953 217.462 101.319 217.071 100.929C216.681 100.538 216.047 100.538 215.657 100.929L210 106.586L204.343 100.929C203.953 100.538 203.319 100.538 202.929 100.929C202.538 101.319 202.538 101.953 202.929 102.343L209.293 108.707ZM209 68L209 108L211 108L211 68L209 68Z" fill="white"/>
<path d="M209.293 344.707C209.683 345.098 210.317 345.098 210.707 344.707L217.071 338.343C217.462 337.953 217.462 337.319 217.071 336.929C216.681 336.538 216.047 336.538 215.657 336.929L210 342.586L204.343 336.929C203.953 336.538 203.319 336.538 202.929 336.929C202.538 337.319 202.538 337.953 202.929 338.343L209.293 344.707ZM209 304L209 344L211 344L211 304L209 304Z" fill="white"/>
<rect x="182" y="118" width="116" height="176" stroke="#FF0000" stroke-width="4"/>
</svg>
