<svg width="428" height="359" viewBox="0 0 428 359" fill="none" xmlns="http://www.w3.org/2000/svg">
<rect x="1" y="292" width="58" height="58" fill="#D9D9D9" stroke="black" stroke-width="2"/>
<path d="M18.397 330.841V327.364L33.7379 303.091H36.2607V308.477H34.5561L22.9652 326.818V327.091H43.6243V330.841H18.397ZM34.8288 338V329.784V328.165V303.091H38.8516V338H34.8288Z" fill="black"/>
<rect x="361" y="292" width="58" height="58" fill="white" stroke="black" stroke-width="2"/>
<rect x="301" y="292" width="58" height="58" fill="white" stroke="black" stroke-width="2"/>
<rect x="241" y="292" width="58" height="58" fill="white" stroke="black" stroke-width="2"/>
<rect x="181" y="292" width="58" height="58" fill="white" stroke="black" stroke-width="2"/>
<rect x="121" y="292" width="58" height="58" fill="white" stroke="black" stroke-width="2"/>
<rect x="61" y="292" width="58" height="58" fill="white" stroke="black" stroke-width="2"/>
<rect x="186" y="297" width="48" height="48" fill="black"/>
<rect x="186" y="297" width="48" height="48" stroke="black"/>
<rect x="126" y="297" width="48" height="48" fill="black"/>
<rect x="126" y="297" width="48" height="48" stroke="black"/>
<rect x="246" y="297" width="48" height="48" fill="black"/>
<rect x="246" y="297" width="48" height="48" stroke="black"/>
<path d="M409 302L371 340M371 302L409 340" stroke="#1E1E1E" stroke-width="4" stroke-linecap="round" stroke-linejoin="round"/>
<rect x="1" y="177" width="58" height="58" fill="#D9D9D9" stroke="black" stroke-width="2"/>
<path d="M18.397 215.841V212.364L33.7379 188.091H36.2607V193.477H34.5561L22.9652 211.818V212.091H43.6243V215.841H18.397ZM34.8288 223V214.784V213.165V188.091H38.8516V223H34.8288Z" fill="black"/>
<rect x="361" y="177" width="58" height="58" fill="white" stroke="black" stroke-width="2"/>
<rect x="301" y="177" width="58" height="58" fill="white" stroke="black" stroke-width="2"/>
<rect x="241" y="177" width="58" height="58" fill="white" stroke="black" stroke-width="2"/>
<rect x="181" y="177" width="58" height="58" fill="white" stroke="black" stroke-width="2"/>
<rect x="121" y="177" width="58" height="58" fill="white" stroke="black" stroke-width="2"/>
<rect x="61" y="177" width="58" height="58" fill="white" stroke="black" stroke-width="2"/>
<rect x="306" y="182" width="48" height="48" fill="black"/>
<rect x="306" y="182" width="48" height="48" stroke="black"/>
<rect x="126" y="182" width="48" height="48" fill="black"/>
<rect x="126" y="182" width="48" height="48" stroke="black"/>
<rect x="186" y="182" width="48" height="48" fill="black"/>
<rect x="186" y="182" width="48" height="48" stroke="black"/>
<rect x="246" y="182" width="48" height="48" fill="black"/>
<rect x="246" y="182" width="48" height="48" stroke="black"/>
<rect x="1" y="117" width="58" height="58" fill="#D9D9D9" stroke="black" stroke-width="2"/>
<path d="M18.397 155.841V152.364L33.7379 128.091H36.2607V133.477H34.5561L22.9652 151.818V152.091H43.6243V155.841H18.397ZM34.8288 163V154.784V153.165V128.091H38.8516V163H34.8288Z" fill="black"/>
<rect x="361" y="117" width="58" height="58" fill="white" stroke="black" stroke-width="2"/>
<rect x="301" y="117" width="58" height="58" fill="white" stroke="black" stroke-width="2"/>
<rect x="241" y="117" width="58" height="58" fill="white" stroke="black" stroke-width="2"/>
<rect x="181" y="117" width="58" height="58" fill="white" stroke="black" stroke-width="2"/>
<rect x="121" y="117" width="58" height="58" fill="white" stroke="black" stroke-width="2"/>
<rect x="61" y="117" width="58" height="58" fill="white" stroke="black" stroke-width="2"/>
<rect x="66" y="122" width="48" height="48" fill="black"/>
<rect x="66" y="122" width="48" height="48" stroke="black"/>
<rect x="126" y="122" width="48" height="48" fill="black"/>
<rect x="126" y="122" width="48" height="48" stroke="black"/>
<rect x="186" y="122" width="48" height="48" fill="black"/>
<rect x="186" y="122" width="48" height="48" stroke="black"/>
<rect x="246" y="122" width="48" height="48" fill="black"/>
<rect x="246" y="122" width="48" height="48" stroke="black"/>
<rect x="1" y="1" width="58" height="58" fill="#D9D9D9" stroke="black" stroke-width="2"/>
<path d="M18.397 39.8409V36.3636L33.7379 12.0909H36.2607V17.4773H34.5561L22.9652 35.8182V36.0909H43.6243V39.8409H18.397ZM34.8288 47V38.7841V37.1648V12.0909H38.8516V47H34.8288Z" fill="black"/>
<rect x="361" y="1" width="58" height="58" fill="white" stroke="black" stroke-width="2"/>
<rect x="301" y="1" width="58" height="58" fill="white" stroke="black" stroke-width="2"/>
<rect x="241" y="1" width="58" height="58" fill="white" stroke="black" stroke-width="2"/>
<rect x="181" y="1" width="58" height="58" fill="white" stroke="black" stroke-width="2"/>
<rect x="121" y="1" width="58" height="58" fill="white" stroke="black" stroke-width="2"/>
<rect x="61" y="1" width="58" height="58" fill="white" stroke="black" stroke-width="2"/>
<rect x="126" y="6" width="48" height="48" fill="black"/>
<rect x="126" y="6" width="48" height="48" stroke="black"/>
<path d="M209.293 108.707C209.683 109.098 210.317 109.098 210.707 108.707L217.071 102.343C217.462 101.953 217.462 101.319 217.071 100.929C216.681 100.538 216.047 100.538 215.657 100.929L210 106.586L204.343 100.929C203.953 100.538 203.319 100.538 202.929 100.929C202.538 101.319 202.538 101.953 202.929 102.343L209.293 108.707ZM209 68L209 108L211 108L211 68L209 68Z" fill="white"/>
<path d="M209.293 284.707C209.683 285.098 210.317 285.098 210.707 284.707L217.071 278.343C217.462 277.953 217.462 277.319 217.071 276.929C216.681 276.538 216.047 276.538 215.657 276.929L210 282.586L204.343 276.929C203.953 276.538 203.319 276.538 202.929 276.929C202.538 277.319 202.538 277.953 202.929 278.343L209.293 284.707ZM209 244L209 284L211 284L211 244L209 244Z" fill="white"/>
<rect x="122" y="118" width="176" height="116" stroke="#FF0000" stroke-width="4"/>
<rect x="362" y="118" width="56" height="116" stroke="#FF0000" stroke-width="4"/>
</svg>
